<mxfile host="app.diagrams.net" agent="Mozilla/5.0 (Windows NT 10.0; Win64; x64; rv:133.0) Gecko/20100101 Firefox/133.0" version="26.0.2">
  <diagram name="Strona-1" id="8XWm0EPhgf8vF86wa1C5">
    <mxGraphModel dx="2257" dy="794" grid="1" gridSize="10" guides="1" tooltips="1" connect="1" arrows="1" fold="1" page="1" pageScale="1" pageWidth="827" pageHeight="1169" math="0" shadow="0">
      <root>
        <mxCell id="0" />
        <mxCell id="1" parent="0" />
        <mxCell id="g1kzwwoofz2DiR25hKaE-1" value="" style="sketch=0;pointerEvents=1;shadow=0;dashed=0;html=1;strokeColor=#66B2FF;fillColor=#3399FF;labelPosition=center;verticalLabelPosition=bottom;verticalAlign=top;outlineConnect=0;align=center;shape=mxgraph.office.concepts.clock;" vertex="1" parent="1">
          <mxGeometry x="-302.5" y="300" width="45" height="45" as="geometry" />
        </mxCell>
        <mxCell id="g1kzwwoofz2DiR25hKaE-2" value="&lt;font style=&quot;font-size: 9px;&quot;&gt;Agent raportowy pobiera listę promptów do raportów cyklicznych&lt;/font&gt;" style="rounded=1;whiteSpace=wrap;html=1;fillColor=#66B2FF;" vertex="1" parent="1">
          <mxGeometry x="-202.5" y="292.5" width="120" height="60" as="geometry" />
        </mxCell>
        <mxCell id="g1kzwwoofz2DiR25hKaE-3" value="&lt;font style=&quot;font-size: 9px;&quot;&gt;Agent do analizy danych sprawdza czy dysponuje danymi potrzebnymi do przygotowania raportu&lt;/font&gt;" style="rounded=1;whiteSpace=wrap;html=1;fillColor=#66CC00;" vertex="1" parent="1">
          <mxGeometry x="490" y="292.5" width="120" height="60" as="geometry" />
        </mxCell>
        <mxCell id="g1kzwwoofz2DiR25hKaE-7" value="&lt;font style=&quot;font-size: 9px;&quot;&gt;Przekazywanie kolejnych promtóww celu wykonywania ich po koleji&lt;/font&gt;" style="rounded=1;whiteSpace=wrap;html=1;fillColor=#66B2FF;" vertex="1" parent="1">
          <mxGeometry x="-30" y="292.5" width="120" height="60" as="geometry" />
        </mxCell>
        <mxCell id="g1kzwwoofz2DiR25hKaE-9" value="&lt;div align=&quot;center&quot;&gt;&lt;font style=&quot;font-size: 9px;&quot;&gt;Agent do zbierania danych podejmuje próbę pobrania potrzebnych danych&lt;/font&gt;&lt;/div&gt;" style="rounded=1;whiteSpace=wrap;html=1;fillColor=#66B2FF;" vertex="1" parent="1">
          <mxGeometry x="490" y="410" width="120" height="60" as="geometry" />
        </mxCell>
        <mxCell id="g1kzwwoofz2DiR25hKaE-10" value="&lt;font style=&quot;font-size: 9px;&quot;&gt;Agent do analizy danych sprawdza czy udało się pobrać wszystkie potrzebne dane&lt;/font&gt;" style="rounded=1;whiteSpace=wrap;html=1;fillColor=#66CC00;" vertex="1" parent="1">
          <mxGeometry x="670" y="410" width="120" height="60" as="geometry" />
        </mxCell>
        <mxCell id="g1kzwwoofz2DiR25hKaE-11" value="&lt;font style=&quot;font-size: 9px;&quot;&gt;Wyświetlenie w interfejsie użytkownika informacji że raportu nie można wykonać&lt;br&gt;&lt;/font&gt;" style="rounded=1;whiteSpace=wrap;html=1;fillColor=#66B2FF;" vertex="1" parent="1">
          <mxGeometry x="657.5" y="533.75" width="145" height="70" as="geometry" />
        </mxCell>
        <mxCell id="g1kzwwoofz2DiR25hKaE-12" value="&lt;font style=&quot;font-size: 9px;&quot;&gt;zakończenie procesu&lt;/font&gt;" style="html=1;dashed=0;whiteSpace=wrap;shape=mxgraph.dfd.start;fillColor=#FFB366;" vertex="1" parent="1">
          <mxGeometry x="1140" y="770" width="80" height="30" as="geometry" />
        </mxCell>
        <mxCell id="g1kzwwoofz2DiR25hKaE-13" value="&lt;font style=&quot;font-size: 9px;&quot;&gt;Agent do raportowania przygotowuje raport&lt;br&gt;&lt;/font&gt;" style="rounded=1;whiteSpace=wrap;html=1;fillColor=#66B2FF;" vertex="1" parent="1">
          <mxGeometry x="1030" y="292.5" width="120" height="60" as="geometry" />
        </mxCell>
        <mxCell id="g1kzwwoofz2DiR25hKaE-14" value="&lt;font style=&quot;font-size: 9px;&quot;&gt;Zapisanie raportu na dysku. Użytkownik ma do niego dostęp z poziomu interfejsu&lt;/font&gt;" style="rounded=1;whiteSpace=wrap;html=1;fillColor=#66B2FF;" vertex="1" parent="1">
          <mxGeometry x="1200" y="292.5" width="120" height="60" as="geometry" />
        </mxCell>
        <mxCell id="g1kzwwoofz2DiR25hKaE-15" value="&lt;font style=&quot;font-size: 9px;&quot;&gt;Agent dokonuje procesu analizy danych. Zwraca też uwagę czy zaszły istotne zmiany na rynku w ofertach konkurencji. Przygotowuje analizę i przekazuje ją do agenta raportujacego&lt;br&gt;&lt;/font&gt;" style="rounded=1;whiteSpace=wrap;html=1;fillColor=#66B2FF;" vertex="1" parent="1">
          <mxGeometry x="860" y="395" width="180" height="90" as="geometry" />
        </mxCell>
        <mxCell id="g1kzwwoofz2DiR25hKaE-17" value="&lt;font style=&quot;font-size: 9px;&quot;&gt;Agent sprawdza czy pojawiła się informacja o istotnych zmianach na rynku w ofertach konkurencji&lt;/font&gt;" style="rounded=1;whiteSpace=wrap;html=1;fillColor=#66CC00;" vertex="1" parent="1">
          <mxGeometry x="1370" y="292.5" width="130" height="60" as="geometry" />
        </mxCell>
        <mxCell id="g1kzwwoofz2DiR25hKaE-18" value="&lt;font style=&quot;font-size: 9px;&quot;&gt;Wysyłka raportu emailem do wskazanych osób z zaznaczeniem że raport zawiera informacje o istotnych zmianach &lt;/font&gt;" style="rounded=1;whiteSpace=wrap;html=1;fillColor=#66B2FF;" vertex="1" parent="1">
          <mxGeometry x="1362.5" y="404" width="145" height="72" as="geometry" />
        </mxCell>
        <mxCell id="g1kzwwoofz2DiR25hKaE-19" value="&lt;font style=&quot;font-size: 9px;&quot;&gt;zakończenie procesu&lt;/font&gt;" style="html=1;dashed=0;whiteSpace=wrap;shape=mxgraph.dfd.start;fillColor=#FFB366;" vertex="1" parent="1">
          <mxGeometry x="1570" y="307.5" width="80" height="30" as="geometry" />
        </mxCell>
        <mxCell id="g1kzwwoofz2DiR25hKaE-20" value="&lt;font style=&quot;font-size: 9px;&quot;&gt;Uruchomienie procesu zgodnie z harmonogramem&lt;/font&gt;" style="text;html=1;align=center;verticalAlign=middle;whiteSpace=wrap;rounded=0;" vertex="1" parent="1">
          <mxGeometry x="-310" y="360" width="60" height="30" as="geometry" />
        </mxCell>
        <mxCell id="g1kzwwoofz2DiR25hKaE-21" value="PROMPT" style="ellipse;whiteSpace=wrap;html=1;strokeColor=#66B2FF;" vertex="1" parent="1">
          <mxGeometry x="143" y="307.5" width="81" height="30" as="geometry" />
        </mxCell>
        <mxCell id="g1kzwwoofz2DiR25hKaE-22" value="" style="endArrow=classic;html=1;rounded=0;entryX=0;entryY=0.5;entryDx=0;entryDy=0;" edge="1" parent="1" source="g1kzwwoofz2DiR25hKaE-1" target="g1kzwwoofz2DiR25hKaE-2">
          <mxGeometry width="50" height="50" relative="1" as="geometry">
            <mxPoint x="120" y="420" as="sourcePoint" />
            <mxPoint x="170" y="370" as="targetPoint" />
          </mxGeometry>
        </mxCell>
        <mxCell id="g1kzwwoofz2DiR25hKaE-23" value="" style="endArrow=classic;html=1;rounded=0;exitX=1;exitY=0.5;exitDx=0;exitDy=0;entryX=0;entryY=0.5;entryDx=0;entryDy=0;" edge="1" parent="1" source="g1kzwwoofz2DiR25hKaE-2" target="g1kzwwoofz2DiR25hKaE-7">
          <mxGeometry width="50" height="50" relative="1" as="geometry">
            <mxPoint x="120" y="420" as="sourcePoint" />
            <mxPoint x="170" y="370" as="targetPoint" />
          </mxGeometry>
        </mxCell>
        <mxCell id="g1kzwwoofz2DiR25hKaE-24" value="" style="endArrow=classic;html=1;rounded=0;exitX=1;exitY=0.5;exitDx=0;exitDy=0;entryX=0;entryY=0.5;entryDx=0;entryDy=0;" edge="1" parent="1" source="g1kzwwoofz2DiR25hKaE-7" target="g1kzwwoofz2DiR25hKaE-21">
          <mxGeometry width="50" height="50" relative="1" as="geometry">
            <mxPoint x="120" y="420" as="sourcePoint" />
            <mxPoint x="170" y="370" as="targetPoint" />
          </mxGeometry>
        </mxCell>
        <mxCell id="g1kzwwoofz2DiR25hKaE-25" value="" style="endArrow=classic;html=1;rounded=0;exitX=1;exitY=0.5;exitDx=0;exitDy=0;entryX=0;entryY=0.5;entryDx=0;entryDy=0;" edge="1" parent="1" source="g1kzwwoofz2DiR25hKaE-21" target="g1kzwwoofz2DiR25hKaE-3">
          <mxGeometry width="50" height="50" relative="1" as="geometry">
            <mxPoint x="350" y="420" as="sourcePoint" />
            <mxPoint x="400" y="370" as="targetPoint" />
          </mxGeometry>
        </mxCell>
        <mxCell id="g1kzwwoofz2DiR25hKaE-26" value="" style="endArrow=classic;html=1;rounded=0;exitX=0.5;exitY=1;exitDx=0;exitDy=0;entryX=0.5;entryY=0;entryDx=0;entryDy=0;" edge="1" parent="1" source="g1kzwwoofz2DiR25hKaE-3" target="g1kzwwoofz2DiR25hKaE-9">
          <mxGeometry width="50" height="50" relative="1" as="geometry">
            <mxPoint x="350" y="420" as="sourcePoint" />
            <mxPoint x="400" y="370" as="targetPoint" />
          </mxGeometry>
        </mxCell>
        <mxCell id="g1kzwwoofz2DiR25hKaE-27" value="Nie" style="edgeLabel;html=1;align=center;verticalAlign=middle;resizable=0;points=[];" vertex="1" connectable="0" parent="g1kzwwoofz2DiR25hKaE-26">
          <mxGeometry x="0.0725" y="2" relative="1" as="geometry">
            <mxPoint as="offset" />
          </mxGeometry>
        </mxCell>
        <mxCell id="g1kzwwoofz2DiR25hKaE-28" value="" style="endArrow=classic;html=1;rounded=0;exitX=1;exitY=0.5;exitDx=0;exitDy=0;entryX=0;entryY=0.5;entryDx=0;entryDy=0;" edge="1" parent="1" source="g1kzwwoofz2DiR25hKaE-9" target="g1kzwwoofz2DiR25hKaE-10">
          <mxGeometry width="50" height="50" relative="1" as="geometry">
            <mxPoint x="350" y="420" as="sourcePoint" />
            <mxPoint x="400" y="370" as="targetPoint" />
          </mxGeometry>
        </mxCell>
        <mxCell id="g1kzwwoofz2DiR25hKaE-29" value="" style="endArrow=classic;html=1;rounded=0;exitX=0.5;exitY=1;exitDx=0;exitDy=0;entryX=0.5;entryY=0;entryDx=0;entryDy=0;" edge="1" parent="1" source="g1kzwwoofz2DiR25hKaE-10" target="g1kzwwoofz2DiR25hKaE-11">
          <mxGeometry width="50" height="50" relative="1" as="geometry">
            <mxPoint x="350" y="420" as="sourcePoint" />
            <mxPoint x="400" y="370" as="targetPoint" />
          </mxGeometry>
        </mxCell>
        <mxCell id="g1kzwwoofz2DiR25hKaE-30" value="Nie" style="edgeLabel;html=1;align=center;verticalAlign=middle;resizable=0;points=[];" vertex="1" connectable="0" parent="g1kzwwoofz2DiR25hKaE-29">
          <mxGeometry x="0.0556" y="2" relative="1" as="geometry">
            <mxPoint as="offset" />
          </mxGeometry>
        </mxCell>
        <mxCell id="g1kzwwoofz2DiR25hKaE-31" value="" style="endArrow=classic;html=1;rounded=0;entryX=0.5;entryY=0.5;entryDx=0;entryDy=-15;entryPerimeter=0;" edge="1" parent="1" target="g1kzwwoofz2DiR25hKaE-12">
          <mxGeometry width="50" height="50" relative="1" as="geometry">
            <mxPoint x="950" y="610" as="sourcePoint" />
            <mxPoint x="400" y="370" as="targetPoint" />
          </mxGeometry>
        </mxCell>
        <mxCell id="g1kzwwoofz2DiR25hKaE-46" value="Nie" style="edgeLabel;html=1;align=center;verticalAlign=middle;resizable=0;points=[];" vertex="1" connectable="0" parent="g1kzwwoofz2DiR25hKaE-31">
          <mxGeometry x="-0.1433" y="-1" relative="1" as="geometry">
            <mxPoint as="offset" />
          </mxGeometry>
        </mxCell>
        <mxCell id="g1kzwwoofz2DiR25hKaE-32" value="" style="endArrow=classic;html=1;rounded=0;exitX=1;exitY=0.5;exitDx=0;exitDy=0;entryX=0;entryY=0.5;entryDx=0;entryDy=0;" edge="1" parent="1" source="g1kzwwoofz2DiR25hKaE-3" target="g1kzwwoofz2DiR25hKaE-13">
          <mxGeometry width="50" height="50" relative="1" as="geometry">
            <mxPoint x="350" y="420" as="sourcePoint" />
            <mxPoint x="400" y="370" as="targetPoint" />
          </mxGeometry>
        </mxCell>
        <mxCell id="g1kzwwoofz2DiR25hKaE-33" value="Tak" style="edgeLabel;html=1;align=center;verticalAlign=middle;resizable=0;points=[];" vertex="1" connectable="0" parent="g1kzwwoofz2DiR25hKaE-32">
          <mxGeometry x="-0.0042" y="2" relative="1" as="geometry">
            <mxPoint as="offset" />
          </mxGeometry>
        </mxCell>
        <mxCell id="g1kzwwoofz2DiR25hKaE-34" value="" style="endArrow=classic;html=1;rounded=0;exitX=1;exitY=0.5;exitDx=0;exitDy=0;entryX=0;entryY=0.5;entryDx=0;entryDy=0;" edge="1" parent="1" source="g1kzwwoofz2DiR25hKaE-10" target="g1kzwwoofz2DiR25hKaE-15">
          <mxGeometry width="50" height="50" relative="1" as="geometry">
            <mxPoint x="760" y="420" as="sourcePoint" />
            <mxPoint x="810" y="370" as="targetPoint" />
          </mxGeometry>
        </mxCell>
        <mxCell id="g1kzwwoofz2DiR25hKaE-35" value="Tak" style="edgeLabel;html=1;align=center;verticalAlign=middle;resizable=0;points=[];" vertex="1" connectable="0" parent="g1kzwwoofz2DiR25hKaE-34">
          <mxGeometry x="0.0952" relative="1" as="geometry">
            <mxPoint as="offset" />
          </mxGeometry>
        </mxCell>
        <mxCell id="g1kzwwoofz2DiR25hKaE-36" value="" style="endArrow=classic;html=1;rounded=0;exitX=1;exitY=0.5;exitDx=0;exitDy=0;entryX=0;entryY=0.5;entryDx=0;entryDy=0;" edge="1" parent="1" source="g1kzwwoofz2DiR25hKaE-13" target="g1kzwwoofz2DiR25hKaE-14">
          <mxGeometry width="50" height="50" relative="1" as="geometry">
            <mxPoint x="760" y="420" as="sourcePoint" />
            <mxPoint x="810" y="370" as="targetPoint" />
          </mxGeometry>
        </mxCell>
        <mxCell id="g1kzwwoofz2DiR25hKaE-37" value="" style="endArrow=classic;html=1;rounded=0;exitX=1;exitY=0.5;exitDx=0;exitDy=0;entryX=0;entryY=0.5;entryDx=0;entryDy=0;" edge="1" parent="1" source="g1kzwwoofz2DiR25hKaE-14" target="g1kzwwoofz2DiR25hKaE-17">
          <mxGeometry width="50" height="50" relative="1" as="geometry">
            <mxPoint x="760" y="420" as="sourcePoint" />
            <mxPoint x="810" y="370" as="targetPoint" />
          </mxGeometry>
        </mxCell>
        <mxCell id="g1kzwwoofz2DiR25hKaE-38" value="" style="endArrow=classic;html=1;rounded=0;exitX=0.5;exitY=1;exitDx=0;exitDy=0;" edge="1" parent="1" source="g1kzwwoofz2DiR25hKaE-17" target="g1kzwwoofz2DiR25hKaE-18">
          <mxGeometry width="50" height="50" relative="1" as="geometry">
            <mxPoint x="760" y="420" as="sourcePoint" />
            <mxPoint x="810" y="370" as="targetPoint" />
          </mxGeometry>
        </mxCell>
        <mxCell id="g1kzwwoofz2DiR25hKaE-39" value="Tak" style="edgeLabel;html=1;align=center;verticalAlign=middle;resizable=0;points=[];" vertex="1" connectable="0" parent="g1kzwwoofz2DiR25hKaE-38">
          <mxGeometry x="-0.0291" relative="1" as="geometry">
            <mxPoint as="offset" />
          </mxGeometry>
        </mxCell>
        <mxCell id="g1kzwwoofz2DiR25hKaE-40" value="" style="endArrow=classic;html=1;rounded=0;exitX=1;exitY=0.5;exitDx=0;exitDy=0;entryX=0;entryY=0.5;entryDx=0;entryDy=0;entryPerimeter=0;" edge="1" parent="1" source="g1kzwwoofz2DiR25hKaE-17" target="g1kzwwoofz2DiR25hKaE-19">
          <mxGeometry width="50" height="50" relative="1" as="geometry">
            <mxPoint x="760" y="420" as="sourcePoint" />
            <mxPoint x="810" y="370" as="targetPoint" />
          </mxGeometry>
        </mxCell>
        <mxCell id="g1kzwwoofz2DiR25hKaE-42" value="Nie" style="edgeLabel;html=1;align=center;verticalAlign=middle;resizable=0;points=[];" vertex="1" connectable="0" parent="g1kzwwoofz2DiR25hKaE-40">
          <mxGeometry x="-0.3611" y="3" relative="1" as="geometry">
            <mxPoint as="offset" />
          </mxGeometry>
        </mxCell>
        <mxCell id="g1kzwwoofz2DiR25hKaE-41" value="" style="endArrow=classic;html=1;rounded=0;exitX=1;exitY=0.5;exitDx=0;exitDy=0;entryX=0.5;entryY=0.5;entryDx=0;entryDy=15;entryPerimeter=0;" edge="1" parent="1" source="g1kzwwoofz2DiR25hKaE-18" target="g1kzwwoofz2DiR25hKaE-19">
          <mxGeometry width="50" height="50" relative="1" as="geometry">
            <mxPoint x="760" y="420" as="sourcePoint" />
            <mxPoint x="810" y="370" as="targetPoint" />
            <Array as="points">
              <mxPoint x="1610" y="440" />
            </Array>
          </mxGeometry>
        </mxCell>
        <mxCell id="g1kzwwoofz2DiR25hKaE-43" value="&lt;font style=&quot;font-size: 9px;&quot;&gt;Sprawdzenie czy użytkownik życzył sobie aby informacje o niepowodzeniu wykonania raportu były wysyłane drogą mailową&lt;/font&gt;" style="rounded=1;whiteSpace=wrap;html=1;fillColor=#66CC00;" vertex="1" parent="1">
          <mxGeometry x="875" y="530" width="150" height="77.5" as="geometry" />
        </mxCell>
        <mxCell id="g1kzwwoofz2DiR25hKaE-44" value="" style="endArrow=classic;html=1;rounded=0;exitX=1;exitY=0.5;exitDx=0;exitDy=0;entryX=0;entryY=0.5;entryDx=0;entryDy=0;" edge="1" parent="1" source="g1kzwwoofz2DiR25hKaE-11" target="g1kzwwoofz2DiR25hKaE-43">
          <mxGeometry width="50" height="50" relative="1" as="geometry">
            <mxPoint x="760" y="420" as="sourcePoint" />
            <mxPoint x="810" y="370" as="targetPoint" />
          </mxGeometry>
        </mxCell>
        <mxCell id="g1kzwwoofz2DiR25hKaE-45" value="&lt;font style=&quot;font-size: 9px;&quot;&gt;Wysyłka maila do wskazanych osób z informacją o niepowodzeniu przy tworzeniu raportu&lt;/font&gt;" style="rounded=1;whiteSpace=wrap;html=1;fillColor=#66B2FF;" vertex="1" parent="1">
          <mxGeometry x="1110" y="530" width="140" height="77.5" as="geometry" />
        </mxCell>
        <mxCell id="g1kzwwoofz2DiR25hKaE-47" value="" style="endArrow=classic;html=1;rounded=0;exitX=1;exitY=0.5;exitDx=0;exitDy=0;entryX=0;entryY=0.5;entryDx=0;entryDy=0;" edge="1" parent="1" source="g1kzwwoofz2DiR25hKaE-43" target="g1kzwwoofz2DiR25hKaE-45">
          <mxGeometry width="50" height="50" relative="1" as="geometry">
            <mxPoint x="760" y="420" as="sourcePoint" />
            <mxPoint x="810" y="370" as="targetPoint" />
          </mxGeometry>
        </mxCell>
        <mxCell id="g1kzwwoofz2DiR25hKaE-48" value="Tak" style="edgeLabel;html=1;align=center;verticalAlign=middle;resizable=0;points=[];" vertex="1" connectable="0" parent="g1kzwwoofz2DiR25hKaE-47">
          <mxGeometry x="0.0392" y="-3" relative="1" as="geometry">
            <mxPoint as="offset" />
          </mxGeometry>
        </mxCell>
        <mxCell id="g1kzwwoofz2DiR25hKaE-49" value="" style="endArrow=classic;html=1;rounded=0;exitX=0.5;exitY=1;exitDx=0;exitDy=0;" edge="1" parent="1" source="g1kzwwoofz2DiR25hKaE-45" target="g1kzwwoofz2DiR25hKaE-12">
          <mxGeometry width="50" height="50" relative="1" as="geometry">
            <mxPoint x="760" y="420" as="sourcePoint" />
            <mxPoint x="810" y="370" as="targetPoint" />
          </mxGeometry>
        </mxCell>
        <mxCell id="g1kzwwoofz2DiR25hKaE-50" value="" style="ellipse;whiteSpace=wrap;html=1;aspect=fixed;fillColor=#66B2FF;" vertex="1" parent="1">
          <mxGeometry x="-310" y="815" width="20" height="20" as="geometry" />
        </mxCell>
        <mxCell id="g1kzwwoofz2DiR25hKaE-51" value="" style="ellipse;whiteSpace=wrap;html=1;aspect=fixed;fillColor=#66CC00;" vertex="1" parent="1">
          <mxGeometry x="-310" y="845" width="20" height="20" as="geometry" />
        </mxCell>
        <mxCell id="g1kzwwoofz2DiR25hKaE-52" value="" style="ellipse;whiteSpace=wrap;html=1;aspect=fixed;fillColor=#FF9933;" vertex="1" parent="1">
          <mxGeometry x="-310" y="875" width="20" height="20" as="geometry" />
        </mxCell>
        <mxCell id="g1kzwwoofz2DiR25hKaE-53" value="operacje potrzebne do realizacji procesu" style="text;html=1;align=center;verticalAlign=middle;whiteSpace=wrap;rounded=0;" vertex="1" parent="1">
          <mxGeometry x="-304" y="810" width="270" height="30" as="geometry" />
        </mxCell>
        <mxCell id="g1kzwwoofz2DiR25hKaE-54" value="punkty decyzyjne" style="text;html=1;align=center;verticalAlign=middle;whiteSpace=wrap;rounded=0;" vertex="1" parent="1">
          <mxGeometry x="-304" y="840" width="140" height="30" as="geometry" />
        </mxCell>
        <mxCell id="g1kzwwoofz2DiR25hKaE-55" value="zakończenie procesu" style="text;html=1;align=center;verticalAlign=middle;whiteSpace=wrap;rounded=0;" vertex="1" parent="1">
          <mxGeometry x="-304" y="870" width="160" height="30" as="geometry" />
        </mxCell>
        <mxCell id="g1kzwwoofz2DiR25hKaE-56" value="&lt;font style=&quot;font-size: 9px;&quot;&gt;Weryfikacja czy zadanie zlecone w prompcie jest możliwe do wykonania przez agenta&lt;/font&gt;" style="rounded=1;whiteSpace=wrap;html=1;fillColor=#66CC00;" vertex="1" parent="1">
          <mxGeometry x="285" y="292.5" width="110" height="60" as="geometry" />
        </mxCell>
        <mxCell id="g1kzwwoofz2DiR25hKaE-57" value="" style="endArrow=classic;html=1;rounded=0;entryX=0.5;entryY=0;entryDx=0;entryDy=0;exitX=0.5;exitY=1;exitDx=0;exitDy=0;" edge="1" parent="1" source="g1kzwwoofz2DiR25hKaE-56" target="g1kzwwoofz2DiR25hKaE-59">
          <mxGeometry width="50" height="50" relative="1" as="geometry">
            <mxPoint x="364.92" y="346" as="sourcePoint" />
            <mxPoint x="364.92" y="387.99999999999994" as="targetPoint" />
          </mxGeometry>
        </mxCell>
        <mxCell id="g1kzwwoofz2DiR25hKaE-58" value="Nie" style="edgeLabel;html=1;align=center;verticalAlign=middle;resizable=0;points=[];" vertex="1" connectable="0" parent="g1kzwwoofz2DiR25hKaE-57">
          <mxGeometry x="0.0317" y="-1" relative="1" as="geometry">
            <mxPoint as="offset" />
          </mxGeometry>
        </mxCell>
        <mxCell id="g1kzwwoofz2DiR25hKaE-59" value="&lt;font style=&quot;font-size: 9px;&quot;&gt;Zwrócenie informacji do użytkownika o niemożliwości wykonania tak sformułowanego zadania&lt;/font&gt;" style="rounded=1;whiteSpace=wrap;html=1;fillColor=#66B2FF;" vertex="1" parent="1">
          <mxGeometry x="275" y="502.5" width="130" height="67.5" as="geometry" />
        </mxCell>
        <mxCell id="g1kzwwoofz2DiR25hKaE-60" value="Tak" style="edgeLabel;html=1;align=center;verticalAlign=middle;resizable=0;points=[];" vertex="1" connectable="0" parent="1">
          <mxGeometry x="419.18183078404945" y="323.016563364323" as="geometry" />
        </mxCell>
        <mxCell id="g1kzwwoofz2DiR25hKaE-61" value="" style="endArrow=classic;html=1;rounded=0;exitX=0.5;exitY=1;exitDx=0;exitDy=0;entryX=0.5;entryY=0;entryDx=0;entryDy=0;" edge="1" parent="1" source="g1kzwwoofz2DiR25hKaE-59" target="g1kzwwoofz2DiR25hKaE-67">
          <mxGeometry width="50" height="50" relative="1" as="geometry">
            <mxPoint x="435" y="282.5" as="sourcePoint" />
            <mxPoint x="340" y="602.5" as="targetPoint" />
          </mxGeometry>
        </mxCell>
        <mxCell id="g1kzwwoofz2DiR25hKaE-63" value="" style="endArrow=classic;html=1;rounded=0;exitX=1;exitY=0.5;exitDx=0;exitDy=0;entryX=0.5;entryY=1;entryDx=0;entryDy=0;" edge="1" parent="1" source="g1kzwwoofz2DiR25hKaE-15" target="g1kzwwoofz2DiR25hKaE-13">
          <mxGeometry width="50" height="50" relative="1" as="geometry">
            <mxPoint x="710" y="470" as="sourcePoint" />
            <mxPoint x="760" y="420" as="targetPoint" />
            <Array as="points">
              <mxPoint x="1090" y="440" />
            </Array>
          </mxGeometry>
        </mxCell>
        <mxCell id="g1kzwwoofz2DiR25hKaE-64" value="&lt;font style=&quot;font-size: 9px;&quot;&gt;zakończenie procesu&lt;/font&gt;" style="html=1;dashed=0;whiteSpace=wrap;shape=mxgraph.dfd.start;fillColor=#FFB366;" vertex="1" parent="1">
          <mxGeometry x="535" y="843.75" width="80" height="30" as="geometry" />
        </mxCell>
        <mxCell id="g1kzwwoofz2DiR25hKaE-65" value="" style="endArrow=classic;html=1;rounded=0;entryX=0.5;entryY=0.5;entryDx=0;entryDy=-15;entryPerimeter=0;" edge="1" parent="1" target="g1kzwwoofz2DiR25hKaE-64">
          <mxGeometry width="50" height="50" relative="1" as="geometry">
            <mxPoint x="345" y="683.75" as="sourcePoint" />
            <mxPoint x="-205" y="443.75" as="targetPoint" />
          </mxGeometry>
        </mxCell>
        <mxCell id="g1kzwwoofz2DiR25hKaE-66" value="Nie" style="edgeLabel;html=1;align=center;verticalAlign=middle;resizable=0;points=[];" vertex="1" connectable="0" parent="g1kzwwoofz2DiR25hKaE-65">
          <mxGeometry x="-0.1433" y="-1" relative="1" as="geometry">
            <mxPoint as="offset" />
          </mxGeometry>
        </mxCell>
        <mxCell id="g1kzwwoofz2DiR25hKaE-67" value="&lt;font style=&quot;font-size: 9px;&quot;&gt;Sprawdzenie czy użytkownik życzył sobie aby informacje o niepowodzeniu wykonania raportu były wysyłane drogą mailową&lt;/font&gt;" style="rounded=1;whiteSpace=wrap;html=1;fillColor=#66CC00;" vertex="1" parent="1">
          <mxGeometry x="265" y="603.75" width="150" height="77.5" as="geometry" />
        </mxCell>
        <mxCell id="g1kzwwoofz2DiR25hKaE-69" value="&lt;font style=&quot;font-size: 9px;&quot;&gt;Wysyłka maila do wskazanych osób z informacją o niepowodzeniu przy tworzeniu raportu&lt;/font&gt;" style="rounded=1;whiteSpace=wrap;html=1;fillColor=#66B2FF;" vertex="1" parent="1">
          <mxGeometry x="505" y="603.75" width="140" height="77.5" as="geometry" />
        </mxCell>
        <mxCell id="g1kzwwoofz2DiR25hKaE-70" value="" style="endArrow=classic;html=1;rounded=0;exitX=0.5;exitY=1;exitDx=0;exitDy=0;" edge="1" parent="1" source="g1kzwwoofz2DiR25hKaE-69" target="g1kzwwoofz2DiR25hKaE-64">
          <mxGeometry width="50" height="50" relative="1" as="geometry">
            <mxPoint x="155" y="493.75" as="sourcePoint" />
            <mxPoint x="205" y="443.75" as="targetPoint" />
          </mxGeometry>
        </mxCell>
        <mxCell id="g1kzwwoofz2DiR25hKaE-71" value="" style="endArrow=classic;html=1;rounded=0;exitX=1;exitY=0.5;exitDx=0;exitDy=0;entryX=0;entryY=0.5;entryDx=0;entryDy=0;" edge="1" parent="1" source="g1kzwwoofz2DiR25hKaE-67" target="g1kzwwoofz2DiR25hKaE-69">
          <mxGeometry width="50" height="50" relative="1" as="geometry">
            <mxPoint x="415" y="642.16" as="sourcePoint" />
            <mxPoint x="500" y="642.16" as="targetPoint" />
          </mxGeometry>
        </mxCell>
        <mxCell id="g1kzwwoofz2DiR25hKaE-72" value="Tak" style="edgeLabel;html=1;align=center;verticalAlign=middle;resizable=0;points=[];" vertex="1" connectable="0" parent="g1kzwwoofz2DiR25hKaE-71">
          <mxGeometry x="0.0392" y="-3" relative="1" as="geometry">
            <mxPoint as="offset" />
          </mxGeometry>
        </mxCell>
      </root>
    </mxGraphModel>
  </diagram>
</mxfile>
